<mxfile host="www.draw.io" modified="2019-10-31T09:23:20.979Z" agent="Mozilla/5.0 (Macintosh; Intel Mac OS X 10_14_5) AppleWebKit/537.36 (KHTML, like Gecko) Chrome/77.0.3865.120 Safari/537.36" etag="7Cr2ft193RM1q6YNcmL-" version="12.1.9" type="github" pages="1">
  <diagram id="HOtI-sz_BUimLlqROvsf" name="Page-1">
    <mxGraphModel dx="1172" dy="456" grid="1" gridSize="10" guides="1" tooltips="1" connect="1" arrows="1" fold="1" page="1" pageScale="1" pageWidth="827" pageHeight="1169" math="0" shadow="0">
      <root>
        <mxCell id="0"/>
        <mxCell id="1" parent="0"/>
        <mxCell id="HO2AVKdY3egmCjN-2I0X-20" value="&lt;b&gt;BtkLetterMedia&lt;/b&gt;" style="html=1;" vertex="1" parent="1">
          <mxGeometry x="290" y="280" width="110" height="50" as="geometry"/>
        </mxCell>
        <mxCell id="HO2AVKdY3egmCjN-2I0X-21" value="Extends" style="endArrow=block;endSize=16;endFill=0;html=1;exitX=0.5;exitY=0;exitDx=0;exitDy=0;" edge="1" parent="1" source="HO2AVKdY3egmCjN-2I0X-20" target="HO2AVKdY3egmCjN-2I0X-44">
          <mxGeometry width="160" relative="1" as="geometry">
            <mxPoint x="290" y="350" as="sourcePoint"/>
            <mxPoint x="349" y="207" as="targetPoint"/>
          </mxGeometry>
        </mxCell>
        <mxCell id="HO2AVKdY3egmCjN-2I0X-22" value="&lt;b&gt;Customer&lt;/b&gt;" style="html=1;" vertex="1" parent="1">
          <mxGeometry x="500" y="270" width="110" height="50" as="geometry"/>
        </mxCell>
        <mxCell id="HO2AVKdY3egmCjN-2I0X-23" value="&lt;span style=&quot;font-size: 12px&quot;&gt;letterMedias&lt;/span&gt;" style="endArrow=block;endFill=1;html=1;edgeStyle=orthogonalEdgeStyle;align=left;verticalAlign=top;exitX=0;exitY=0.5;exitDx=0;exitDy=0;" edge="1" parent="1" source="HO2AVKdY3egmCjN-2I0X-22" target="HO2AVKdY3egmCjN-2I0X-20">
          <mxGeometry x="-0.0909" y="81" relative="1" as="geometry">
            <mxPoint x="480" y="310" as="sourcePoint"/>
            <mxPoint x="640" y="310" as="targetPoint"/>
            <mxPoint x="-21" y="-55" as="offset"/>
          </mxGeometry>
        </mxCell>
        <mxCell id="HO2AVKdY3egmCjN-2I0X-24" value="1" style="resizable=0;html=1;align=left;verticalAlign=bottom;labelBackgroundColor=#ffffff;fontSize=10;" connectable="0" vertex="1" parent="HO2AVKdY3egmCjN-2I0X-23">
          <mxGeometry x="-1" relative="1" as="geometry"/>
        </mxCell>
        <mxCell id="HO2AVKdY3egmCjN-2I0X-25" value="BtkDraftLettrerMedia" style="swimlane;fontStyle=1;childLayout=stackLayout;horizontal=1;startSize=26;fillColor=none;horizontalStack=0;resizeParent=1;resizeParentMax=0;resizeLast=0;collapsible=1;marginBottom=0;" vertex="1" parent="1">
          <mxGeometry x="205" y="410" width="140" height="50" as="geometry"/>
        </mxCell>
        <mxCell id="HO2AVKdY3egmCjN-2I0X-28" value="&lt;b&gt;BtkArchiveLettrerMedia&lt;/b&gt;" style="html=1;" vertex="1" parent="1">
          <mxGeometry x="390" y="410" width="130" height="50" as="geometry"/>
        </mxCell>
        <mxCell id="HO2AVKdY3egmCjN-2I0X-29" value="Extends" style="endArrow=block;endSize=16;endFill=0;html=1;entryX=0.75;entryY=1;entryDx=0;entryDy=0;exitX=0.5;exitY=0;exitDx=0;exitDy=0;" edge="1" parent="1" source="HO2AVKdY3egmCjN-2I0X-28" target="HO2AVKdY3egmCjN-2I0X-20">
          <mxGeometry width="160" relative="1" as="geometry">
            <mxPoint x="370" y="380" as="sourcePoint"/>
            <mxPoint x="390" y="350" as="targetPoint"/>
          </mxGeometry>
        </mxCell>
        <mxCell id="HO2AVKdY3egmCjN-2I0X-30" value="Extends" style="endArrow=block;endSize=16;endFill=0;html=1;exitX=0.5;exitY=0;exitDx=0;exitDy=0;" edge="1" parent="1" source="HO2AVKdY3egmCjN-2I0X-25" target="HO2AVKdY3egmCjN-2I0X-20">
          <mxGeometry width="160" relative="1" as="geometry">
            <mxPoint x="280" y="400" as="sourcePoint"/>
            <mxPoint x="370" y="490" as="targetPoint"/>
          </mxGeometry>
        </mxCell>
        <mxCell id="HO2AVKdY3egmCjN-2I0X-31" value="&lt;b&gt;Order&lt;/b&gt;" style="html=1;" vertex="1" parent="1">
          <mxGeometry x="610" y="410" width="110" height="50" as="geometry"/>
        </mxCell>
        <mxCell id="HO2AVKdY3egmCjN-2I0X-32" value="" style="endArrow=block;startArrow=block;endFill=1;startFill=1;html=1;" edge="1" parent="1">
          <mxGeometry width="160" relative="1" as="geometry">
            <mxPoint x="520" y="430" as="sourcePoint"/>
            <mxPoint x="610" y="430" as="targetPoint"/>
          </mxGeometry>
        </mxCell>
        <mxCell id="HO2AVKdY3egmCjN-2I0X-33" value="* orders" style="text;html=1;resizable=0;points=[];autosize=1;align=left;verticalAlign=top;spacingTop=-4;" vertex="1" parent="1">
          <mxGeometry x="500" y="380" width="60" height="20" as="geometry"/>
        </mxCell>
        <mxCell id="HO2AVKdY3egmCjN-2I0X-34" value="* archiveLetterMedias" style="text;html=1;resizable=0;points=[];autosize=1;align=left;verticalAlign=top;spacingTop=-4;" vertex="1" parent="1">
          <mxGeometry x="545" y="470" width="130" height="20" as="geometry"/>
        </mxCell>
        <mxCell id="HO2AVKdY3egmCjN-2I0X-35" value="" style="shape=image;html=1;verticalAlign=top;verticalLabelPosition=bottom;labelBackgroundColor=#ffffff;imageAspect=0;aspect=fixed;image=https://cdn1.iconfinder.com/data/icons/Futurosoft%20Icons%200.5.2/128x128/mimetypes/encrypted.png" vertex="1" parent="1">
          <mxGeometry x="250" y="490" width="50" height="50" as="geometry"/>
        </mxCell>
        <mxCell id="HO2AVKdY3egmCjN-2I0X-37" value="" style="endArrow=open;endFill=1;endSize=12;html=1;exitX=0.5;exitY=1;exitDx=0;exitDy=0;entryX=0.5;entryY=0;entryDx=0;entryDy=0;" edge="1" parent="1" source="HO2AVKdY3egmCjN-2I0X-25" target="HO2AVKdY3egmCjN-2I0X-35">
          <mxGeometry width="160" relative="1" as="geometry">
            <mxPoint x="85" y="479" as="sourcePoint"/>
            <mxPoint x="170" y="490" as="targetPoint"/>
          </mxGeometry>
        </mxCell>
        <mxCell id="HO2AVKdY3egmCjN-2I0X-38" value="" style="endArrow=open;endFill=1;endSize=12;html=1;exitX=0.5;exitY=1;exitDx=0;exitDy=0;" edge="1" parent="1" source="HO2AVKdY3egmCjN-2I0X-28" target="HO2AVKdY3egmCjN-2I0X-39">
          <mxGeometry width="160" relative="1" as="geometry">
            <mxPoint x="290" y="470" as="sourcePoint"/>
            <mxPoint x="455" y="490" as="targetPoint"/>
          </mxGeometry>
        </mxCell>
        <mxCell id="HO2AVKdY3egmCjN-2I0X-39" value="" style="outlineConnect=0;fontColor=#232F3E;gradientColor=none;fillColor=#C7131F;strokeColor=none;dashed=0;verticalLabelPosition=bottom;verticalAlign=top;align=center;html=1;fontSize=12;fontStyle=0;aspect=fixed;pointerEvents=1;shape=mxgraph.aws4.encrypted_data;" vertex="1" parent="1">
          <mxGeometry x="434" y="487" width="42" height="53" as="geometry"/>
        </mxCell>
        <mxCell id="HO2AVKdY3egmCjN-2I0X-41" value="Media" style="swimlane;fontStyle=1;childLayout=stackLayout;horizontal=1;startSize=26;fillColor=none;horizontalStack=0;resizeParent=1;resizeParentMax=0;resizeLast=0;collapsible=1;marginBottom=0;" vertex="1" parent="1">
          <mxGeometry x="273" y="90" width="140" height="104" as="geometry"/>
        </mxCell>
        <mxCell id="HO2AVKdY3egmCjN-2I0X-42" value="+ code: String" style="text;strokeColor=none;fillColor=none;align=left;verticalAlign=top;spacingLeft=4;spacingRight=4;overflow=hidden;rotatable=0;points=[[0,0.5],[1,0.5]];portConstraint=eastwest;" vertex="1" parent="HO2AVKdY3egmCjN-2I0X-41">
          <mxGeometry y="26" width="140" height="26" as="geometry"/>
        </mxCell>
        <mxCell id="HO2AVKdY3egmCjN-2I0X-43" value="+ MediaType:String" style="text;strokeColor=none;fillColor=none;align=left;verticalAlign=top;spacingLeft=4;spacingRight=4;overflow=hidden;rotatable=0;points=[[0,0.5],[1,0.5]];portConstraint=eastwest;" vertex="1" parent="HO2AVKdY3egmCjN-2I0X-41">
          <mxGeometry y="52" width="140" height="26" as="geometry"/>
        </mxCell>
        <mxCell id="HO2AVKdY3egmCjN-2I0X-44" value="+ permitedPrincipals:String" style="text;strokeColor=none;fillColor=none;align=left;verticalAlign=top;spacingLeft=4;spacingRight=4;overflow=hidden;rotatable=0;points=[[0,0.5],[1,0.5]];portConstraint=eastwest;" vertex="1" parent="HO2AVKdY3egmCjN-2I0X-41">
          <mxGeometry y="78" width="140" height="26" as="geometry"/>
        </mxCell>
      </root>
    </mxGraphModel>
  </diagram>
</mxfile>
